<svg id="Layer_1" data-name="Layer 1" xmlns="http://www.w3.org/2000/svg" viewBox="0 0 415.59 387.89"><defs><style>.cls-1{fill:#d1d3d4;}.cls-2{fill:#231f20;}</style></defs><path class="cls-1" d="M462.47,415.23l16.93.48s7.26-3.87-1.93-15.48l-21.77-29h16s7.26-5.32-6.77-16.45l-15-24.67s10.64,1.45,3.39-12.09l-25.64-41.12s-2.9-4.84-11.13,8.22l-13.06-33.86h49.83s17.9-9.68,0-31.93H420.87s.48-22.25-37.73-20.31l-28.06-81.76s-14-23.22-30.48,0l-35.79,104s2.9,14,10.64,2.9l3.38-11.61s3.87-1.93,5.81,2.9l6.19,8.71s5.42,1.45,7.35-3.39l15-21.28,20.32,37.25s5.8,4.83,8.7-1.94l10.65-20.32,31.44,85.14-12.58,20.81s-3.87,4.83,3.39,10.15l-17.42,30s-5.8,11.12,10.65,9.67L373,405.07s-8.23,10.64,14.51,9.68l18.38-.49.49,14S371,414.26,359.92,453l-85.14-1.45s-16-46-59.5-15.48l-3.87-2.42,1.45-49.34,53.21,1s10.64-1.45,1.93-14l-34.34-55.63,18.86-.49s9.68.49,0-15l-16.93-29.51s3.87-3.87,6.29-12.58c0,0,5.81-6.77,10.64,2.42l10.16,14.07s10.65,3.42,17.42,0,13.54-33.9,13.54-33.9-11.61-6.29-13.54,1.93l-4.84,19.35s-6.29,9.19-12.58-6.29c0,0-17.41-27.09-32.41,4.36L223,250.27l8.7-.48s9.68-1.94-5.32-19.35l-31.93-56.12s-4.35-4.83-9.19,5.81l-34.83,59s-7.25,14,1.46,12.57h6.77L150,267.2l-11.13-14.51s-6.77-6.29-11.61,6.29l-20.31,36.28s-12.58,16.93,2.9,15L87.57,345.57s-9.19,11.13,6.29,11.61h8.7L79.83,392s-15.48,14.51,4.83,14.51h29V419.1s-.48,2.42,7.26,3.87,5.32-3.87,5.32-3.87l.35-12.58H143.2v29a58,58,0,0,0-5.81,16H125.78l1-14s-3.87-6.77-12.82-.48v14.51H84.66V463.6H482.3ZM360.88,214.72c0-1.93-11.61-16-16-28.54s-11.13-5.32-11.13-5.32l-16.44,26.6-9.68-10.64s29.51-79.33,31.69-80.3S371,196.75,371,196.75,360.88,216.66,360.88,214.72ZM388,208c23.5-1.25,26.13,20.32,26.13,20.32H448c5.32,7.74,0,9.19,0,9.19H399.1Zm-213.8,37.73s5.8-8.22-9-8.22l25.89-45,26.6,45s-12.59,1.45-6.78,9.67l30.48,56.6H224.48s-10.65-3.87.48,16l28.64,51.76H180L169.73,356h12.66s9.17-3.38-2.43-17.89l-17-31s10.7,2.9,2-13.55l-8.72-16.45ZM194,398.78l-8.71-14h15v36.77c-3.39-5.81-19.86-7-19.86-7v-8l9.93.49C199.78,407.49,194,398.78,194,398.78Zm-101.6-6,24.68-41.6s1-6.78-7.74-7.74c0,0-13.52,2.42-4.58-9.19l20.06-28.54s5.09-4.37-5.33-10.16L135,267l17.42,27.57s2.9,5.32-3.87,5.32S150.45,311,150.45,311l17.9,31-11.61,1.93s-6.29,1.45,0,11.61l21.77,37.25Zm77.1,26.59h0l-.18-.23c-1.45-1.94-13.06,4.35-13.06,4.35V408.94h13.06l-1.45,8.22ZM149,450.79c31.45-52.15,61.92,0,61.92,0Zm71.6,0c20.31-33.38,41.6,0,41.6,0ZM390.39,400l19.35-35.8s2.86-10.38-13.06-6.29l19.83-32.41s1-6.77-5.8-8.71l15.48-23.22,11.61,21.77s-5.32,2.9-3.87,7.26l19.59,33.86-9.43,1.93s-5.81,1.45,0,12.1l16,29.51Zm-16.45,50.79c20.81-33.38,40.16,0,40.16,0Zm60,0h-7.26c1.45-3.39-8.22-14.84-8.22-14.84V412.09h15.48Zm10.16,0V414.51h4.35L463,450.79Z" transform="translate(-71.19 -78.71)"/><path class="cls-2" d="M486.78,466.6H81.66V448.51h29.27V435.44l1.28-.9c3.88-2.73,7.56-3.73,10.94-3a10,10,0,0,1,6.21,4.43l.45.79L129,448.51h6a62.85,62.85,0,0,1,5.24-13.72V409.52H129.54l-.26,9.08a5.93,5.93,0,0,1-.74,5.47c-1.54,1.95-4.27,2.57-8.15,1.85-4.65-.87-7.56-2.27-8.9-4.26a4.36,4.36,0,0,1-.8-2.67v-9.47h-26c-2.68,0-10.84,0-13-5.47s4-12.15,5.84-14L97,360.18H93.86c-6.09-.19-9.89-1.95-11.37-5.24-2.12-4.69,1.73-10,2.63-11.12l19.38-30.75a6.74,6.74,0,0,1-4.47-3.16c-3.1-5.3,2.4-13.6,4.36-16.28l20.12-35.93c2.12-5.4,5-8.55,8.55-9.38a9.15,9.15,0,0,1,7.83,2.17l.34.38,8.35,10.9,4-7h-1.41c-3.53.51-5.38-.9-6.32-2.19-3-4.1.38-11.69,2-14.76l.08-.15,34.75-58.88c2.38-5.18,5.11-7.94,8.34-8.44a6.57,6.57,0,0,1,5.75,2l.21.24,32,56.14c5.69,6.65,8.63,12,8.9,16.19a15.25,15.25,0,0,1,8.14-3.12c10.86-.68,19,11.67,19.3,12.2l.15.24.1.25c2.66,6.54,4.74,7.08,5.13,7.12.69.08,1.48-.6,1.92-1.06l4.68-18.72a7.91,7.91,0,0,1,4.49-5.72c5.27-2.37,12.58,1.44,13.39,1.88l2,1.08-.49,2.21c-1.66,7.47-7.66,32.15-15.12,35.93-7.78,3.93-19.2.33-19.69.17l-.93-.3-11-15.22c-1-1.94-2.14-3.11-3.08-3.21a3.37,3.37,0,0,0-2.24,1,37.42,37.42,0,0,1-5.33,11.29l15.88,27.68c4.59,7.36,5.82,12.66,3.74,16.19a7.23,7.23,0,0,1-6.31,3.35l-13.58.34,31.57,51.13c3.7,5.37,4.78,9.9,3.21,13.46-1.91,4.33-6.71,5.11-7.26,5.18l-.22,0-50.48-.92L214.46,432l.74.47c13.68-9.14,26.23-11.94,37.33-8.35,14.64,4.73,22,19.12,24.3,24.44l80.88,1.38c3.74-11.45,10-19.41,18.68-23.66,10.21-5,21-3.51,26.82-2.06l-.23-6.86-15.41.4c-10.15.44-16.14-1.35-18.27-5.46-2-3.9.42-7.81,1.15-8.83l16.77-30.19c-3.9-.39-6.65-1.75-8.21-4.09-2.84-4.25-.29-9.42,0-10l.07-.12,16.15-27.82a11,11,0,0,1-3.48-6.41,8.79,8.79,0,0,1,1.45-6.08L405,299.3l-28.61-77.45-7.46,14.24c-1.54,3.51-3.83,4.72-5.49,5.12-3.95.94-7.46-1.86-7.84-2.18l-.44-.36-18.28-33.52-12,17.08c-2.4,5.44-8.06,5.54-10.77,4.82l-1-.28-7-9.88-.14-.33a3.29,3.29,0,0,0-.72-1.19l-2.94,10.09-.28.4c-3,4.26-6,6.09-9.09,5.46-5-1-6.66-8.06-6.95-9.46l-.17-.81,36.21-105.19.24-.35c5.61-7.92,11.76-11.82,18.2-11.58,10.3.38,17,11.3,17.3,11.76l.16.28.11.3,27.33,79.64c14.58-.4,25.36,2.68,32,9.17a21.57,21.57,0,0,1,6.24,11.23h31.19l.91,1.12c6.92,8.61,9.69,16.61,8.25,23.79a19.66,19.66,0,0,1-9.16,12.66l-.67.36H407.83l9.46,24.53c3.13-3.94,5.92-5.78,8.65-5.77a5.1,5.1,0,0,1,4.27,2.33l25.71,41.25c3.22,6,3.75,10.4,1.63,13.44a6.75,6.75,0,0,1-2.79,2.31l12.42,20.42c6.29,5.09,9.44,9.95,9.36,14.44a8.37,8.37,0,0,1-3.1,6.44l-.8.58H461.7l18.17,24.22c4.18,5.28,5.89,10.05,5,14.12a8.73,8.73,0,0,1-4.1,5.81l-.7.37L467,418.36Zm-399.12-6H477.83l-19.89-48.5,20.45.58a3.1,3.1,0,0,0,.67-1.48c.22-1.26,0-4.12-3.95-9.1L449.7,368.21h20.58a2.81,2.81,0,0,0,.26-1.25c0-1.19-.8-4.52-7.52-9.85l-.42-.33-18.54-30.51,6.24.85c.75.08,2-.07,2.33-.53,0-.06,1-1.57-1.95-7.09l-25.16-40.35c-.81.4-2.92,1.92-6.47,7.55l-3.18,5.06-16.79-43.52h53.33A13.61,13.61,0,0,0,458,240c1-5.06-1.09-11-6.18-17.65h-34l.07-3.06a14.84,14.84,0,0,0-4.88-10c-5.72-5.46-16-8-29.7-7.28l-2.26.12-28.67-83.55c-.92-1.4-5.86-8.41-12.24-8.63-4.19-.15-8.55,2.78-12.82,8.7L291.93,221.39c.55,2,1.55,3.83,2.12,4.06,0,0,.92-.24,2.66-2.63l3.61-12.38,1.17-.58a7.25,7.25,0,0,1,5.52-.27,7.74,7.74,0,0,1,4.27,4.39l5.26,7.4a2.76,2.76,0,0,0,2.86-1.73l.13-.33.2-.28,17.77-25.23,22.31,40.88a3.45,3.45,0,0,0,2.22.68c.65-.16,1.16-1.17,1.42-1.76l.1-.21,13.77-26.3,34.28,92.83-13.54,22.36c-.38.54-1.44,2.74,2.81,5.86l2.18,1.6L384.32,362c-.41.83-1,2.83-.31,3.85.31.47,1.83,1.95,8.05,1.4l5.63-.49L375.35,406.9c-.42.57-1.08,1.94-.72,2.63.15.28,1.75,2.68,12.73,2.22l21.41-.57.74,21.59-4.26-1.69c-.14-.05-14.09-5.41-26.26.59-7.6,3.75-13.05,11.19-16.19,22.12l-.64,2.21-89.53-1.53-.69-2c-.06-.17-6.43-17.91-21.29-22.7-9.65-3.1-21-.18-33.65,8.7l-1.63,1.14-7-4.39,1.59-54,55.86,1a3.59,3.59,0,0,0,2.44-1.63c.3-.7.63-2.85-2.71-7.68l-.09-.14-37.09-60.07,24.2-.62h.11c.08,0,.82-.07,1-.39,0-.09,1.15-2.26-3.7-10l-.06-.1-18.07-31.5,1.62-1.62s3.38-3.55,5.52-11.26l.18-.64.43-.51c.35-.4,3.47-3.89,7.86-3.4,3,.34,5.59,2.42,7.62,6.18l9.43,13.07c3.23.86,10.06,2,14.23-.09,3.11-1.57,8.24-16.06,11.43-29.5-2.13-.81-4.69-1.38-6-.77-.24.11-.81.37-1.11,1.67l-5,19.91-.3.45c-.32.45-3.19,4.47-7.79,4-3.92-.42-7.17-3.87-9.93-10.55-1.95-2.89-7.79-9.61-13.74-9.24s-10.47,7.54-13.3,13.48l-2.13,4.47-13.6-18.12,13.93-.78a1,1,0,0,0,.53-.63c.19-.62.68-4.18-7.58-13.78l-.19-.22-31.8-55.89a.4.4,0,0,0-.29,0c-.61.12-2.11,1.34-3.84,5.13l-.14.28-34.79,58.94c-1.59,3.12-2.71,6.92-2.45,8.24a3.85,3.85,0,0,0,.78-.07l.5,0h11.9l-13.45,23.92-13.69-17.85a2.93,2.93,0,0,0-2.29-.61c-1.46.36-3,2.5-4.35,5.88l-.18.39-20.41,36.44-.11.16c-2.79,3.76-4.83,8.63-4.12,9.84.13.22,1.19.77,4.24.39l6.29-.79-25.86,41c-1.1,1.35-2.42,3.91-1.92,5,.32.72,2.09,1.59,6,1.71H108.1L82.14,394l-.26.25c-2.58,2.43-5.17,6.3-4.64,7.64.23.58,2.08,1.68,7.42,1.68h32v15A13.8,13.8,0,0,0,121.5,420a9.39,9.39,0,0,0,2,.2l-.25-.56,0-.65.44-15.49H146.2v32.81l-.39.69a55.36,55.36,0,0,0-5.46,15l-.44,2.48H122.57l1.11-16.09a3.94,3.94,0,0,0-1.91-1,7.23,7.23,0,0,0-4.84,1.23v15.88H87.66ZM425.09,278.47a.1.1,0,0,1,0,0ZM228.78,253l1.05,1.39c.3-.51.61-1,.91-1.5Zm238.6,200.83H441.09V411.51h9.38Zm-20.29-6h11.43L447.09,419.2Zm-10.16,6H422.12l1.69-4c-.16-1.75-3.67-7.23-7.65-11.95l-.71-.84v-28h21.48ZM423.82,450Zm5.6-2.18h1.51v-32.7h-9.48v19.78C424.83,439,428.31,443.86,429.42,447.79Zm-10.12,6H368.54l2.86-4.59c6.72-10.78,14.18-16.25,22.19-16.25h.29c13.32.21,22.43,15.67,22.81,16.32Zm-39.63-6h28.58c-3.18-3.84-8.42-8.75-14.49-8.83C389,438.87,384.27,441.85,379.67,447.79Zm-112,6h-124l2.74-4.55c9.86-16.34,20.82-24.63,32.6-24.63h.17c19.75.14,33.73,23.66,34.31,24.67l2.2,3.76,2.32-3.81c6.53-10.71,14-16.19,22.19-16.27h.19c13.82,0,23.89,15.56,24.32,16.23Zm-41.41-6H256c-3.53-3.92-9.27-8.92-15.77-8.83C235.42,439,230.72,442,226.26,447.79Zm-71.77,0h50.76c-4.75-6.34-14.52-17.11-26.11-17.18H179C170.56,430.61,162.33,436.38,154.49,447.79Zm48.8-15.18L197.7,423c-1.76-3-11.48-5.09-17.49-5.53l-2.78-.21V403.37l13.08.64a5.3,5.3,0,0,0,2.25-.22,7.62,7.62,0,0,0-1.26-3.36l-.05-.07L179.9,381.75h23.39Zm-19.86-20.82c3.57.43,9.36,1.43,13.86,3.6v-7.61c-1.45,1.64-3.83,2.39-7.08,2.22l-6.78-.33Zm13.1-14.63c.16.25.44.71.76,1.31V387.75h-6.6Zm-43.27,31.33V405.94H172.9l-1.85,10.46.83,1.11,0,.05.18.24h0a3,3,0,0,1,.37,3l-.68,1.6-1.72.2a2.9,2.9,0,0,1-2.39-.78,49.12,49.12,0,0,0-10,4.29Zm6-16.55v6.62A39.35,39.35,0,0,1,165,416.3l.76-4.36ZM465.08,403H385.36l21.53-39.83a3,3,0,0,0-.49-2.36c-.43-.43-2.35-1.7-9,0l-7.17,1.84,23.32-38.11a4.76,4.76,0,0,0-3.7-4.87l-3.95-1.13,20.54-30.82,15.37,28.82-2.6,1.42s-2.85,1.66-2.52,3.46l21.48,37.13-13.27,2.72a.87.87,0,0,0-.3.45c-.17.5-.53,2.52,2.09,7.32Zm-69.66-6H455l-13.57-25.09c-2.88-5.28-3.65-9.56-2.27-12.7a6.57,6.57,0,0,1,4.18-3.73l.12,0,5.36-1.09-17.66-30.53-.1-.29c-1.28-3.84.69-7.05,2.86-9.06l-8-15.07-10.78,16.17a11,11,0,0,1,4.36,10.34l-.08.62L402.62,354c3.56-.1,6.23.78,8.07,2.65,3.23,3.29,2.08,7.87,1.94,8.39l-.09.32-.16.3Zm-211.68-1.26H87.14l27-45.5c0-1.22-.74-3.25-4.73-3.81-2,.28-7.64.74-9.89-2.95-2.47-4.08,1.47-9.27,2.84-11.05l20.31-28.9.18-.12a.93.93,0,0,0,.22-.72c0-.32-.5-2.05-5-4.56l-2.6-1.44L134.78,261,155,293.1c.21.38,2,3.78.21,6.73-1.12,1.89-3.17,2.9-6.12,3a25.91,25.91,0,0,0,3.71,6.29l.23.34,20.07,34.71-15.65,2.61a.79.79,0,0,0-.42.48c-.33.92.08,3.14,2.24,6.63Zm-86.07-6h75.61L154.15,357c-3-4.88-3.92-9-2.62-12.08a6.77,6.77,0,0,1,4.54-4l.18,0,7.34-1.22-15.63-27c-2.55-3.3-6.37-9.2-4.5-13,.5-1,1.83-2.77,5.06-2.77a5.31,5.31,0,0,0,1.47-.16,3.12,3.12,0,0,0-.21-.67L135.17,272.9l-11.69,21.55c3.41,2.38,5.27,4.95,5.55,7.68a6.94,6.94,0,0,1-1.91,5.47l-20,28.44c-2,2.55-2.34,3.85-2.41,4.31a9.6,9.6,0,0,0,4.09.09l.43-.07.43.05c3.78.42,6.62,1.82,8.44,4.18a9.76,9.76,0,0,1,1.94,7l-.09.59Zm161-15.29H178.35L164.15,353h17.5a2.74,2.74,0,0,0,1.07-1.6c.29-1.16.36-4.58-5.1-11.42l-.29-.43L157,302.38l6.81,1.84a2.94,2.94,0,0,0,1.55,0h0s.86-1.93-3-9.23l-9.48-17.91L171.7,244c.36-.54.75-1.57.53-2s-2.11-1.54-7-1.54H160l31-53.94,31.58,53.39-4.59.53c-2.26.27-5.11,1.33-5.6,2.42-.21.48.14,1.43.92,2.54l.19.31,32.86,61H224l-.5-.18a2.88,2.88,0,0,0-.57-.11c0,1,.35,4,4.7,11.79Zm-77.11-6h66.93l-26.18-47.3c-5.51-9.83-6.77-15.64-4.06-18.83,1.77-2.08,4.58-2.18,6.67-1.59h11.44l-28-52c-2.55-3.7-2.16-6.55-1.38-8.3,1.16-2.6,3.75-4.08,6.08-4.92l-21.93-37.07-20.94,36.41c3.74.63,6.17,2.1,7.37,4.42,1.84,3.55-.28,7.17-.84,8l-17,29.92,7.95,15c4.08,7.7,4.83,12.72,2.35,15.82a5.89,5.89,0,0,1-2.16,1.69l14.65,26.73c5.23,6.6,7.25,12.2,6,16.65a8.68,8.68,0,0,1-5,5.73l-.5.18h-7.62Zm266.78-128H397l-13.3-35.29,4.09-.22c20.75-1.11,27,14.05,28.7,20.32h33l.89,1.3c2.64,3.84,3.48,7.17,2.49,9.89a6.41,6.41,0,0,1-4.17,3.89Zm-47.19-6h46.08l0-.09c.11-.37,0-1.39-1-3.1H411.44l-.32-2.64c-.09-.7-2.3-16.21-18.79-17.63Zm-40-16.56a4.15,4.15,0,0,1-.94-.13,3.08,3.08,0,0,1-2.31-2.54c-.37-.8-1.87-3-3.2-5-3.87-5.82-9.73-14.63-12.64-23-1.59-4.6-3.16-5.26-3.6-5.36a3.31,3.31,0,0,0-2.33,1L317.8,212.43l-13.58-14.94.64-1.71c.07-.2,7.47-20.08,15-39.82,15.74-41.07,16.63-41.46,18.24-42.18a3.08,3.08,0,0,1,2.49,0c1.66.7,3,1.26,18.5,42.26,7.46,19.7,14.66,39.5,14.73,39.69l.45,1.23-.6,1.16s-2.37,4.65-4.79,9.17C364.5,215.57,363.26,217.9,361.17,217.9Zm-3.2-2.54Zm-.09-.64h0Zm-19.69-38.95a7.44,7.44,0,0,1,1.53.16c3.46.74,6.16,3.85,8,9.27,2.66,7.67,8.26,16.09,12,21.66l1.43,2.16c1.78-3.19,4.29-7.93,6.63-12.47-8.91-24.48-22.67-61.2-28.28-73.74-5.46,12.6-19.25,48.84-28.38,73.35l5.77,6.34L331.4,179l.2-.22A9.8,9.8,0,0,1,338.19,175.77Z" transform="translate(-71.19 -78.71)"/><path class="cls-1" d="M188.19,144.33h57.57s19.35-9.67,0-31H213.35s-1.94-27.09-39.18-19.83c0,0-31.45-29-61.44,3.87,0,0-16,26.6,0,41.6,0,0,10.64,7.26,12.09,7.26h42.09s11.61-5.81-1-12.58h-38.7s-10.16.47-9.67-17.18c0,0,8.22-23,27.09-23,0,0,12.35-2.26,25,13.38,0,0,16.05-9,20.66-3.71,0,0,12.44,1.94,14.57,18.87,0,0,3.56,4.35,15.67,1.93l16,.49s7.72-1.94,4.83,10.64l-51-1.45S181.91,136.59,188.19,144.33Z" transform="translate(-71.19 -78.71)"/><path class="cls-2" d="M167.62,149.27h-42.8c-.88,0-2.37,0-13.78-7.78l-.36-.29c-17.53-16.47-1.22-44.16-.52-45.33l.15-.26.2-.22c9.61-10.54,20.4-16.14,32.07-16.64,16-.7,28.63,8.46,32.45,11.58,13.35-2.35,23.89-.66,31.32,5a26.43,26.43,0,0,1,9.53,15h31.21l.89,1c7.33,8.07,10.39,15.69,9.09,22.64-1.63,8.77-9.63,12.86-10,13l-.63.31h-59.7l-.9-1.11c-2.63-3.23-3.54-6.35-2.71-9.26,1.23-4.28,5.72-5.93,6.23-6.11l.51-.17,49,1.39c.43-3.37-.35-4.31-.46-4.42-.37-.38-1.21-.23-1.22-.23l-.4.1-.36,0L220.84,127c-13.21,2.54-17.75-2.46-18.23-3l-.55-.67-.11-.86c-1.8-14.32-11.66-16.2-12.08-16.28l-1.05-.18-.73-.81c-1.71-2-10.34.67-16.92,4.36l-2.2,1.24-1.6-2c-11.27-13.89-21.76-12.38-22.2-12.31l-.51,0c-15.18,0-22.91,17.59-24.1,20.56-.11,7,1.63,10.35,3.14,11.9a5.2,5.2,0,0,0,3.47,1.69H166.7l.67.36c5,2.68,7.48,5.82,7.42,9.31-.07,5.21-5.88,8.26-6.54,8.59Zm-42.41-6h40.91c1.24-.77,2.66-2.07,2.67-3,0-.7-.95-2-3.63-3.58H127.28a11.07,11.07,0,0,1-7.68-3.3c-3.55-3.49-5.24-9.19-5-17V116l.16-.45c.37-1,9.11-24.79,29.7-25,2.11-.27,13.86-1.06,26,12.6,5.09-2.57,16-7.19,21.42-2.66,3.3.88,13.47,4.79,15.88,20,1.27.74,4.81,2.1,12.28.6l.34-.06,16,.48a7.37,7.37,0,0,1,6.31,1.87c2.49,2.44,3,6.52,1.67,12.45l-.55,2.4-52.85-1.5a3.81,3.81,0,0,0-2,1.92,3.62,3.62,0,0,0,.79,2.7H245c1.45-.9,5.36-3.75,6.23-8.49s-1.42-10.29-6.78-16.47H210.56l-.2-2.78a20.74,20.74,0,0,0-7.73-13.52c-6.28-4.76-15.66-6-27.89-3.59l-1.49.29-1.12-1c-.12-.11-13-11.73-29.35-11-9.9.44-19.2,5.3-27.61,14.44-1.46,2.57-13.53,25-.55,37.48A112.2,112.2,0,0,0,125.21,143.27Z" transform="translate(-71.19 -78.71)"/></svg>